<?xml version="1.0" encoding="UTF-8" standalone="no"?>
<svg
   viewBox="0 0 683.19507 515.17029"
   version="1.1"
   id="svg1210"
   sodipodi:docname="ico-search.svg"
   width="683.19507"
   height="515.17029"
   inkscape:version="1.1.2 (b8e25be833, 2022-02-05)"
   xmlns:inkscape="http://www.inkscape.org/namespaces/inkscape"
   xmlns:sodipodi="http://sodipodi.sourceforge.net/DTD/sodipodi-0.dtd"
   xmlns="http://www.w3.org/2000/svg"
   xmlns:svg="http://www.w3.org/2000/svg">
  <defs
     id="defs1214" />
  <sodipodi:namedview
     id="namedview1212"
     pagecolor="#ffffff"
     bordercolor="#666666"
     borderopacity="1.0"
     inkscape:pageshadow="2"
     inkscape:pageopacity="0.0"
     inkscape:pagecheckerboard="0"
     showgrid="false"
     inkscape:zoom="1.2617188"
     inkscape:cx="331.29412"
     inkscape:cy="257.18885"
     inkscape:window-width="1920"
     inkscape:window-height="991"
     inkscape:window-x="-9"
     inkscape:window-y="-9"
     inkscape:window-maximized="1"
     inkscape:current-layer="svg1210" />
  <!--! Font Awesome Pro 6.2.0 by @fontawesome - https://fontawesome.com License - https://fontawesome.com/license (Commercial License) Copyright 2022 Fonticons, Inc. -->
  <path
     d="m 501.61003,209.54764 c 0,45.9 -14.9,88.3 -40,122.7 l 126.6,126.7 c 12.5,12.5 12.5,32.8 0,45.3 -12.5,12.5 -32.8,12.5 -45.3,0 l -126.6,-126.7 c -34.4,25.2 -76.8,40 -122.7,40 -114.9,0 -207.999996,-93.1 -207.999996,-208 0,-114.899996 93.099996,-207.999996 207.999996,-207.999996 114.9,0 208,93.1 208,207.999996 z m -208,144 c 79.5,0 144,-64.5 144,-144 0,-79.5 -64.5,-143.999996 -144,-143.999996 -79.5,0 -144,64.499996 -144,143.999996 0,79.5 64.5,144 144,144 z"
     id="path1208"
     style="fill:#585858;fill-opacity:1" />
</svg>
